<svg width="24" height="24" viewBox="0 0 24 24" fill="none" xmlns="http://www.w3.org/2000/svg">
  <path d="M12 2C6.5 2 2 6.5 2 12C2 17.5 6.5 22 12 22C13.5 22 15 21 15 19.5C15 18.8 14.7 18.2 14.4 17.7C14.1 17.2 14 16.6 14 16C14 14.3 15.3 13 17 13H19C20.7 13 22 11.7 22 10C22 5.6 17.5 2 12 2Z" stroke="currentColor" stroke-width="2" stroke-linecap="round" stroke-linejoin="round"/>
  <circle cx="7" cy="10" r="1.5" fill="currentColor"/>
  <circle cx="11" cy="7" r="1.5" fill="currentColor"/>
  <circle cx="16" cy="8" r="1.5" fill="currentColor"/>
</svg>
